<svg version="1.1" id="Layer_1" xmlns="http://www.w3.org/2000/svg" xmlns:xlink="http://www.w3.org/1999/xlink" x="0px" y="0px"
	 width="100%" viewBox="0 0 500 498" enable-background="new 0 0 500 498" xml:space="preserve">
<path fill="#4C6971" opacity="1.000000" stroke="none" 
	d="
M501.000000,124.000000 
	C501.000000,249.333298 501.000000,374.166595 501.000000,498.999939 
	C334.333405,498.999939 167.666809,498.999939 1.000156,498.999969 
	C1.000104,333.000122 1.000104,167.000214 1.000052,1.000246 
	C167.666519,1.000164 334.333038,1.000164 500.999756,1.000082 
	C501.000000,41.833332 501.000000,82.666664 501.000000,124.000000 
M148.500000,104.000046 
	C161.593384,104.000046 174.686768,104.000046 187.780151,104.000046 
	C187.777191,103.637825 187.774246,103.275612 187.771301,102.913391 
	C160.175003,102.913391 132.578705,102.913391 104.982414,102.913391 
	C104.981812,102.601326 104.981209,102.289253 104.980606,101.977188 
	C132.861465,101.977188 160.742310,101.977188 188.665558,101.977188 
	C188.665558,71.050369 188.665558,40.662411 188.665558,10.386631 
	C128.943390,10.386631 69.555817,10.386631 10.262886,10.386631 
	C10.262886,70.709846 10.262886,130.646042 10.262886,190.683075 
	C40.914021,190.683075 71.301872,190.683075 102.203064,190.683075 
	C102.203064,161.335175 102.203064,132.299789 102.203064,103.264389 
	C102.507431,103.266327 102.811798,103.268265 103.116165,103.270203 
	C103.116165,132.186111 103.116165,161.102020 103.116165,190.017929 
	C103.429008,190.018326 103.741859,190.018707 104.054703,190.019104 
	C104.054703,161.459579 104.054703,132.900070 104.054703,104.000046 
	C118.894791,104.000046 133.197388,104.000046 148.500000,104.000046 
M106.000023,377.498535 
	C106.000023,355.407166 106.000023,333.315765 106.000023,311.224396 
	C105.637886,311.225800 105.275742,311.227203 104.913605,311.228577 
	C104.913605,339.491638 104.913605,367.754669 104.913605,396.017700 
	C104.601631,396.018280 104.289665,396.018860 103.977692,396.019440 
	C103.977692,367.472290 103.977692,338.925171 103.977692,310.333130 
	C73.050972,310.333130 42.662819,310.333130 12.385897,310.333130 
	C12.385897,370.055023 12.385897,429.442993 12.385897,488.737610 
	C72.708641,488.737610 132.645126,488.737610 192.683548,488.737610 
	C192.683548,458.086243 192.683548,427.698273 192.683548,396.797119 
	C164.002243,396.797119 135.633133,396.797119 107.264015,396.797119 
	C107.266006,396.492706 107.267990,396.188263 107.269974,395.883850 
	C135.519180,395.883850 163.768372,395.883850 192.017578,395.883850 
	C192.017914,395.570770 192.018265,395.257721 192.018616,394.944641 
	C163.458984,394.944641 134.899368,394.944641 106.000023,394.944641 
	C106.000023,389.105927 106.000023,383.801849 106.000023,377.498535 
M353.500000,105.000008 
	C368.256348,105.000008 383.012726,105.000008 398.121704,105.000008 
	C398.121704,133.471375 398.121704,161.244217 398.121704,189.017059 
	C398.423950,189.017838 398.726166,189.018616 399.028412,189.019394 
	C399.028412,160.699524 399.028412,132.379654 399.028412,104.059776 
	C399.391693,104.060493 399.755005,104.061203 400.118286,104.061913 
	C400.118286,132.617966 400.118286,161.174026 400.118286,189.613770 
	C431.055389,189.613770 461.444153,189.613770 491.737946,189.613770 
	C491.737946,129.957413 491.737946,70.687637 491.737946,11.315307 
	C431.421326,11.315307 371.367218,11.315307 311.369629,11.315307 
	C311.369629,42.020481 311.369629,72.408882 311.369629,103.154472 
	C340.163849,103.154472 368.590668,103.154472 397.017487,103.154472 
	C397.018127,103.455696 397.018768,103.756912 397.019379,104.058136 
	C368.713440,104.058136 340.407501,104.058136 312.101562,104.058136 
	C312.102814,104.372093 312.104065,104.686050 312.105316,105.000008 
	C325.570190,105.000008 339.035095,105.000008 353.500000,105.000008 
M491.000000,332.500000 
	C491.000000,324.740997 491.000000,316.981995 491.000000,309.406433 
	C459.909607,309.406433 429.522186,309.406433 398.783203,309.406433 
	C398.783203,338.852356 398.783203,367.893738 398.783203,396.935150 
	C398.483276,396.935303 398.183380,396.935455 397.883453,396.935638 
	C397.883453,368.351654 397.883453,339.767639 397.883453,311.183655 
	C397.516815,311.184998 397.150208,311.186340 396.783569,311.187653 
	C396.783569,339.404999 396.783569,367.622345 396.783569,396.187317 
	C368.493713,396.187317 340.759186,396.187317 313.024658,396.187317 
	C313.024231,396.487488 313.023773,396.787659 313.023346,397.087830 
	C340.634857,397.087830 368.246338,397.087830 395.857849,397.087830 
	C395.856689,397.453308 395.855530,397.818817 395.854370,398.184296 
	C367.968323,398.184296 340.082245,398.184296 312.245300,398.184296 
	C312.245300,429.008453 312.245300,459.278778 312.245300,489.701416 
	C371.878265,489.701416 431.265594,489.701416 491.000000,489.701416 
	C491.000000,437.435760 491.000000,385.467865 491.000000,332.500000 
M286.999756,252.500000 
	C286.999756,241.427841 286.999756,230.355667 286.999756,219.329803 
	C262.932495,219.329803 239.704681,219.329803 216.416412,219.329803 
	C216.416412,243.008179 216.416412,266.354095 216.416412,289.669495 
	C240.061890,289.669495 263.289673,289.669495 286.999756,289.669495 
	C286.999756,277.396851 286.999756,265.448425 286.999756,252.500000 
M458.500000,9.000000 
	C409.709351,9.000000 360.918671,9.000000 312.128021,9.000000 
	C312.129059,9.230654 312.130096,9.461308 312.131104,9.691962 
	C371.710907,9.691962 431.290710,9.691962 490.870514,9.691962 
	C490.871399,9.461308 490.872284,9.230654 490.873169,9.000000 
	C480.415436,9.000000 469.957733,9.000000 458.500000,9.000000 
M9.000000,69.500000 
	C9.000000,50.061405 9.000000,30.622810 9.000000,11.184216 
	C8.776546,11.186872 8.553092,11.189529 8.329638,11.192185 
	C8.329638,70.731422 8.329638,130.270660 8.329638,189.809891 
	C8.553092,189.809830 8.776546,189.809753 9.000000,189.809692 
	C9.000000,150.039795 9.000000,110.269897 9.000000,69.500000 
M492.000000,397.500000 
	C492.000000,427.945221 492.000000,458.390472 492.000000,488.835693 
	C492.226166,488.834015 492.452301,488.832306 492.678467,488.830597 
	C492.678467,429.276215 492.678467,369.721832 492.678467,310.167419 
	C492.452301,310.167267 492.226166,310.167145 492.000000,310.166992 
	C492.000000,338.944672 492.000000,367.722321 492.000000,397.500000 
M117.500000,491.000000 
	C142.275131,491.000000 167.050247,491.000000 191.825378,491.000000 
	C191.823288,490.775208 191.821213,490.550415 191.819122,490.325623 
	C132.605682,490.325623 73.392250,490.325623 14.178813,490.325623 
	C14.178788,490.550415 14.178763,490.775208 14.178740,491.000000 
	C48.285828,491.000000 82.392914,491.000000 117.500000,491.000000 
M403.500000,492.000000 
	C432.277740,492.000000 461.055481,492.000000 489.833221,492.000000 
	C489.831421,491.774170 489.829620,491.548340 489.827820,491.322510 
	C430.941925,491.322510 372.056061,491.322510 313.170166,491.322510 
	C313.170074,491.548340 313.169952,491.774170 313.169830,492.000000 
	C342.946564,492.000000 372.723267,492.000000 403.500000,492.000000 
M10.000000,351.500000 
	C10.000000,396.955444 10.000000,442.410889 10.000000,487.866333 
	C10.229962,487.865234 10.459926,487.864105 10.689888,487.863007 
	C10.689888,428.953766 10.689888,370.044525 10.689888,311.135284 
	C10.459926,311.134369 10.229962,311.133423 10.000000,311.132507 
	C10.000000,324.255005 10.000000,337.377502 10.000000,351.500000 
M494.000000,167.499908 
	C494.000000,115.706894 494.000000,63.913879 494.000000,12.120868 
	C493.768463,12.121831 493.536957,12.122795 493.305420,12.123758 
	C493.305420,71.041763 493.305420,129.959778 493.305420,188.877777 
	C493.536957,188.879761 493.768463,188.881760 494.000000,188.883743 
	C494.000000,182.089096 494.000000,175.294449 494.000000,167.499908 
M37.500000,9.000000 
	C87.625267,9.000000 137.750534,9.000000 187.875793,9.000000 
	C187.874786,8.768876 187.873795,8.537753 187.872803,8.306629 
	C128.957047,8.306629 70.041298,8.306629 11.125553,8.306629 
	C11.123999,8.537753 11.122443,8.768876 11.120888,9.000000 
	C19.580591,9.000000 28.040297,9.000000 37.500000,9.000000 
M459.500000,307.000000 
	C439.714386,307.000000 419.928772,307.000000 400.143188,307.000000 
	C400.145752,307.228424 400.148346,307.456879 400.150909,307.685303 
	C430.051483,307.685303 459.952057,307.685303 489.852600,307.685303 
	C489.853516,307.456879 489.854431,307.228424 489.855377,307.000000 
	C480.070251,307.000000 470.285126,307.000000 459.500000,307.000000 
M47.500000,308.000000 
	C36.057301,308.000000 24.614603,308.000000 13.171905,308.000000 
	C13.176426,308.224365 13.180947,308.448730 13.185469,308.673096 
	C43.063190,308.673096 72.940918,308.673096 102.818634,308.673096 
	C102.818619,308.448730 102.818604,308.224365 102.818588,308.000000 
	C84.712395,308.000000 66.606194,308.000000 47.500000,308.000000 
M82.499237,192.000000 
	C58.709072,192.000000 34.918907,192.000000 11.128740,192.000000 
	C11.130853,192.230270 11.132966,192.460526 11.135078,192.690796 
	C41.046043,192.690796 70.957008,192.690796 100.867973,192.690796 
	C100.870102,192.460526 100.872231,192.230270 100.874359,192.000000 
	C95.082458,192.000000 89.290558,192.000000 82.499237,192.000000 
M434.500000,191.000000 
	C423.390961,191.000000 412.281921,191.000000 401.172852,191.000000 
	C401.177521,191.224197 401.182190,191.448395 401.186859,191.672592 
	C431.063660,191.672592 460.940491,191.672592 490.817291,191.672592 
	C490.817261,191.448395 490.817230,191.224197 490.817169,191.000000 
	C472.378113,191.000000 453.939056,191.000000 434.500000,191.000000 
M309.000000,58.500000 
	C309.000000,72.945892 309.000000,87.391777 309.000000,101.837669 
	C309.225830,101.834106 309.451660,101.830536 309.677490,101.826973 
	C309.677490,71.941025 309.677490,42.055069 309.677490,12.169112 
	C309.451660,12.168909 309.225830,12.168706 309.000000,12.168503 
	C309.000000,27.279001 309.000000,42.389500 309.000000,58.500000 
M311.000000,429.500000 
	C311.000000,419.391876 311.000000,409.283752 311.000000,399.175629 
	C310.776276,399.180756 310.552582,399.185883 310.328857,399.191010 
	C310.328857,429.065063 310.328857,458.939117 310.328857,488.813171 
	C310.552582,488.813049 310.776276,488.812958 311.000000,488.812866 
	C311.000000,469.375244 311.000000,449.937622 311.000000,429.500000 
M191.000000,36.500000 
	C191.000000,28.059807 191.000000,19.619614 191.000000,11.179420 
	C190.777100,11.185576 190.554214,11.191732 190.331314,11.197888 
	C190.331314,41.067394 190.331314,70.936905 190.331314,100.806412 
	C190.554214,100.806183 190.777100,100.805962 191.000000,100.805740 
	C191.000000,79.703827 191.000000,58.601913 191.000000,36.500000 
M195.000000,452.500000 
	C195.000000,435.049469 195.000000,417.598938 195.000000,400.148407 
	C194.772308,400.151337 194.544601,400.154266 194.316910,400.157196 
	C194.316910,428.720367 194.316910,457.283508 194.316910,485.846649 
	C194.544601,485.847260 194.772308,485.847900 195.000000,485.848511 
	C195.000000,475.065674 195.000000,464.282837 195.000000,452.500000 
M235.501343,217.000519 
	C229.722504,217.000519 223.943665,217.000519 218.164810,217.000519 
	C218.167175,217.232758 218.169540,217.464996 218.171890,217.697235 
	C240.698578,217.697235 263.225281,217.697235 285.751953,217.697235 
	C285.752777,217.464996 285.753601,217.232758 285.754425,217.000519 
	C269.336578,217.000519 252.918701,217.000519 235.501343,217.000519 
M289.000000,249.500000 
	C289.000000,240.040024 289.000000,230.580032 289.000000,221.120056 
	C288.750061,221.122910 288.500122,221.125763 288.250183,221.128616 
	C288.250183,243.709549 288.250183,266.290466 288.250183,288.871399 
	C288.500122,288.873535 288.750061,288.875671 289.000000,288.877808 
	C289.000000,276.085205 289.000000,263.292603 289.000000,249.500000 
M255.500000,291.000458 
	C243.142487,291.000458 230.784973,291.000458 218.427460,291.000458 
	C218.432220,291.238464 218.436981,291.476471 218.441757,291.714478 
	C240.896423,291.714478 263.351105,291.714478 285.805786,291.714478 
	C285.806915,291.476471 285.808044,291.238495 285.809174,291.000488 
	C276.039459,291.000488 266.269714,291.000488 255.500000,291.000458 
M215.000000,254.500000 
	C215.000000,244.122192 215.000000,233.744400 215.000000,223.366592 
	C214.761597,223.372269 214.523193,223.377945 214.284790,223.383636 
	C214.284790,244.531616 214.284790,265.679596 214.284790,286.827576 
	C214.523193,286.828674 214.761597,286.829803 215.000000,286.830902 
	C215.000000,276.387268 215.000000,265.943634 215.000000,254.500000 
z"/>
<path fill="#FFFFFF" opacity="1.000000" stroke="none" 
	d="
M148.000000,104.000046 
	C133.197388,104.000046 118.894791,104.000046 104.054703,104.000046 
	C104.054703,132.900070 104.054703,161.459579 104.054703,190.019104 
	C103.741859,190.018707 103.429008,190.018326 103.116165,190.017929 
	C103.116165,161.102020 103.116165,132.186111 103.116165,103.270203 
	C102.811798,103.268265 102.507431,103.266327 102.203064,103.264389 
	C102.203064,132.299789 102.203064,161.335175 102.203064,190.683075 
	C71.301872,190.683075 40.914021,190.683075 10.262886,190.683075 
	C10.262886,130.646042 10.262886,70.709846 10.262886,10.386631 
	C69.555817,10.386631 128.943390,10.386631 188.665558,10.386631 
	C188.665558,40.662411 188.665558,71.050369 188.665558,101.977188 
	C160.742310,101.977188 132.861465,101.977188 104.980606,101.977188 
	C104.981209,102.289253 104.981812,102.601326 104.982414,102.913391 
	C132.578705,102.913391 160.175003,102.913391 187.771301,102.913391 
	C187.774246,103.275612 187.777191,103.637825 187.780151,104.000046 
	C174.686768,104.000046 161.593384,104.000046 148.000000,104.000046 
z"/>
<path fill="#FFFFFF" opacity="1.000000" stroke="none" 
	d="
M106.000023,377.998169 
	C106.000023,383.801849 106.000023,389.105927 106.000023,394.944641 
	C134.899368,394.944641 163.458984,394.944641 192.018616,394.944641 
	C192.018265,395.257721 192.017914,395.570770 192.017578,395.883850 
	C163.768372,395.883850 135.519180,395.883850 107.269974,395.883850 
	C107.267990,396.188263 107.266006,396.492706 107.264015,396.797119 
	C135.633133,396.797119 164.002243,396.797119 192.683548,396.797119 
	C192.683548,427.698273 192.683548,458.086243 192.683548,488.737610 
	C132.645126,488.737610 72.708641,488.737610 12.385897,488.737610 
	C12.385897,429.442993 12.385897,370.055023 12.385897,310.333130 
	C42.662819,310.333130 73.050972,310.333130 103.977692,310.333130 
	C103.977692,338.925171 103.977692,367.472290 103.977692,396.019440 
	C104.289665,396.018860 104.601631,396.018280 104.913605,396.017700 
	C104.913605,367.754669 104.913605,339.491638 104.913605,311.228577 
	C105.275742,311.227203 105.637886,311.225800 106.000023,311.224396 
	C106.000023,333.315765 106.000023,355.407166 106.000023,377.998169 
z"/>
<path fill="#FFFFFF" opacity="1.000000" stroke="none" 
	d="
M353.000000,105.000008 
	C339.035095,105.000008 325.570190,105.000008 312.105316,105.000008 
	C312.104065,104.686050 312.102814,104.372093 312.101562,104.058136 
	C340.407501,104.058136 368.713440,104.058136 397.019379,104.058136 
	C397.018768,103.756912 397.018127,103.455696 397.017487,103.154472 
	C368.590668,103.154472 340.163849,103.154472 311.369629,103.154472 
	C311.369629,72.408882 311.369629,42.020481 311.369629,11.315307 
	C371.367218,11.315307 431.421326,11.315307 491.737946,11.315307 
	C491.737946,70.687637 491.737946,129.957413 491.737946,189.613770 
	C461.444153,189.613770 431.055389,189.613770 400.118286,189.613770 
	C400.118286,161.174026 400.118286,132.617966 400.118286,104.061913 
	C399.755005,104.061203 399.391693,104.060493 399.028412,104.059776 
	C399.028412,132.379654 399.028412,160.699524 399.028412,189.019394 
	C398.726166,189.018616 398.423950,189.017838 398.121704,189.017059 
	C398.121704,161.244217 398.121704,133.471375 398.121704,105.000008 
	C383.012726,105.000008 368.256348,105.000008 353.000000,105.000008 
z"/>
<path fill="#FFFFFF" opacity="1.000000" stroke="none" 
	d="
M491.000000,333.000000 
	C491.000000,385.467865 491.000000,437.435760 491.000000,489.701416 
	C431.265594,489.701416 371.878265,489.701416 312.245300,489.701416 
	C312.245300,459.278778 312.245300,429.008453 312.245300,398.184296 
	C340.082245,398.184296 367.968323,398.184296 395.854370,398.184296 
	C395.855530,397.818817 395.856689,397.453308 395.857849,397.087830 
	C368.246338,397.087830 340.634857,397.087830 313.023346,397.087830 
	C313.023773,396.787659 313.024231,396.487488 313.024658,396.187317 
	C340.759186,396.187317 368.493713,396.187317 396.783569,396.187317 
	C396.783569,367.622345 396.783569,339.404999 396.783569,311.187653 
	C397.150208,311.186340 397.516815,311.184998 397.883453,311.183655 
	C397.883453,339.767639 397.883453,368.351654 397.883453,396.935638 
	C398.183380,396.935455 398.483276,396.935303 398.783203,396.935150 
	C398.783203,367.893738 398.783203,338.852356 398.783203,309.406433 
	C429.522186,309.406433 459.909607,309.406433 491.000000,309.406433 
	C491.000000,316.981995 491.000000,324.740997 491.000000,333.000000 
z"/>
<path fill="#FF2C65" opacity="1.000000" stroke="none" 
	d="
M286.999756,253.000000 
	C286.999756,265.448425 286.999756,277.396851 286.999756,289.669495 
	C263.289673,289.669495 240.061890,289.669495 216.416412,289.669495 
	C216.416412,266.354095 216.416412,243.008179 216.416412,219.329803 
	C239.704681,219.329803 262.932495,219.329803 286.999756,219.329803 
	C286.999756,230.355667 286.999756,241.427841 286.999756,253.000000 
z"/>
<path fill="#FFFFFF" opacity="1.000000" stroke="none" 
	d="
M459.000000,9.000000 
	C469.957733,9.000000 480.415436,9.000000 490.873169,9.000000 
	C490.872284,9.230654 490.871399,9.461308 490.870514,9.691962 
	C431.290710,9.691962 371.710907,9.691962 312.131104,9.691962 
	C312.130096,9.461308 312.129059,9.230654 312.128021,9.000000 
	C360.918671,9.000000 409.709351,9.000000 459.000000,9.000000 
z"/>
<path fill="#FFFFFF" opacity="1.000000" stroke="none" 
	d="
M9.000000,70.000000 
	C9.000000,110.269897 9.000000,150.039795 9.000000,189.809692 
	C8.776546,189.809753 8.553092,189.809830 8.329638,189.809891 
	C8.329638,130.270660 8.329638,70.731422 8.329638,11.192185 
	C8.553092,11.189529 8.776546,11.186872 9.000000,11.184216 
	C9.000000,30.622810 9.000000,50.061405 9.000000,70.000000 
z"/>
<path fill="#FFFFFF" opacity="1.000000" stroke="none" 
	d="
M492.000000,397.000000 
	C492.000000,367.722321 492.000000,338.944672 492.000000,310.166992 
	C492.226166,310.167145 492.452301,310.167267 492.678467,310.167419 
	C492.678467,369.721832 492.678467,429.276215 492.678467,488.830597 
	C492.452301,488.832306 492.226166,488.834015 492.000000,488.835693 
	C492.000000,458.390472 492.000000,427.945221 492.000000,397.000000 
z"/>
<path fill="#FFFFFF" opacity="1.000000" stroke="none" 
	d="
M117.000000,491.000000 
	C82.392914,491.000000 48.285828,491.000000 14.178740,491.000000 
	C14.178763,490.775208 14.178788,490.550415 14.178813,490.325623 
	C73.392250,490.325623 132.605682,490.325623 191.819122,490.325623 
	C191.821213,490.550415 191.823288,490.775208 191.825378,491.000000 
	C167.050247,491.000000 142.275131,491.000000 117.000000,491.000000 
z"/>
<path fill="#FFFFFF" opacity="1.000000" stroke="none" 
	d="
M403.000000,492.000000 
	C372.723267,492.000000 342.946564,492.000000 313.169830,492.000000 
	C313.169952,491.774170 313.170074,491.548340 313.170166,491.322510 
	C372.056061,491.322510 430.941925,491.322510 489.827820,491.322510 
	C489.829620,491.548340 489.831421,491.774170 489.833221,492.000000 
	C461.055481,492.000000 432.277740,492.000000 403.000000,492.000000 
z"/>
<path fill="#FFFFFF" opacity="1.000000" stroke="none" 
	d="
M10.000000,351.000000 
	C10.000000,337.377502 10.000000,324.255005 10.000000,311.132507 
	C10.229962,311.133423 10.459926,311.134369 10.689888,311.135284 
	C10.689888,370.044525 10.689888,428.953766 10.689888,487.863007 
	C10.459926,487.864105 10.229962,487.865234 10.000000,487.866333 
	C10.000000,442.410889 10.000000,396.955444 10.000000,351.000000 
z"/>
<path fill="#FFFFFF" opacity="1.000000" stroke="none" 
	d="
M494.000000,167.999847 
	C494.000000,175.294449 494.000000,182.089096 494.000000,188.883743 
	C493.768463,188.881760 493.536957,188.879761 493.305420,188.877777 
	C493.305420,129.959778 493.305420,71.041763 493.305420,12.123758 
	C493.536957,12.122795 493.768463,12.121831 494.000000,12.120868 
	C494.000000,63.913879 494.000000,115.706894 494.000000,167.999847 
z"/>
<path fill="#FFFFFF" opacity="1.000000" stroke="none" 
	d="
M37.000000,9.000000 
	C28.040297,9.000000 19.580591,9.000000 11.120888,9.000000 
	C11.122443,8.768876 11.123999,8.537753 11.125553,8.306629 
	C70.041298,8.306629 128.957047,8.306629 187.872803,8.306629 
	C187.873795,8.537753 187.874786,8.768876 187.875793,9.000000 
	C137.750534,9.000000 87.625267,9.000000 37.000000,9.000000 
z"/>
<path fill="#FFFFFF" opacity="1.000000" stroke="none" 
	d="
M460.000000,307.000000 
	C470.285126,307.000000 480.070251,307.000000 489.855377,307.000000 
	C489.854431,307.228424 489.853516,307.456879 489.852600,307.685303 
	C459.952057,307.685303 430.051483,307.685303 400.150909,307.685303 
	C400.148346,307.456879 400.145752,307.228424 400.143188,307.000000 
	C419.928772,307.000000 439.714386,307.000000 460.000000,307.000000 
z"/>
<path fill="#FFFFFF" opacity="1.000000" stroke="none" 
	d="
M48.000000,308.000000 
	C66.606194,308.000000 84.712395,308.000000 102.818588,308.000000 
	C102.818604,308.224365 102.818619,308.448730 102.818634,308.673096 
	C72.940918,308.673096 43.063190,308.673096 13.185469,308.673096 
	C13.180947,308.448730 13.176426,308.224365 13.171905,308.000000 
	C24.614603,308.000000 36.057301,308.000000 48.000000,308.000000 
z"/>
<path fill="#FFFFFF" opacity="1.000000" stroke="none" 
	d="
M82.998947,192.000000 
	C89.290558,192.000000 95.082458,192.000000 100.874359,192.000000 
	C100.872231,192.230270 100.870102,192.460526 100.867973,192.690796 
	C70.957008,192.690796 41.046043,192.690796 11.135078,192.690796 
	C11.132966,192.460526 11.130853,192.230270 11.128740,192.000000 
	C34.918907,192.000000 58.709072,192.000000 82.998947,192.000000 
z"/>
<path fill="#FFFFFF" opacity="1.000000" stroke="none" 
	d="
M435.000000,191.000000 
	C453.939056,191.000000 472.378113,191.000000 490.817169,191.000000 
	C490.817230,191.224197 490.817261,191.448395 490.817291,191.672592 
	C460.940491,191.672592 431.063660,191.672592 401.186859,191.672592 
	C401.182190,191.448395 401.177521,191.224197 401.172852,191.000000 
	C412.281921,191.000000 423.390961,191.000000 435.000000,191.000000 
z"/>
<path fill="#FFFFFF" opacity="1.000000" stroke="none" 
	d="
M309.000000,58.000000 
	C309.000000,42.389500 309.000000,27.279001 309.000000,12.168503 
	C309.225830,12.168706 309.451660,12.168909 309.677490,12.169112 
	C309.677490,42.055069 309.677490,71.941025 309.677490,101.826973 
	C309.451660,101.830536 309.225830,101.834106 309.000000,101.837669 
	C309.000000,87.391777 309.000000,72.945892 309.000000,58.000000 
z"/>
<path fill="#FFFFFF" opacity="1.000000" stroke="none" 
	d="
M311.000000,430.000000 
	C311.000000,449.937622 311.000000,469.375244 311.000000,488.812866 
	C310.776276,488.812958 310.552582,488.813049 310.328857,488.813171 
	C310.328857,458.939117 310.328857,429.065063 310.328857,399.191010 
	C310.552582,399.185883 310.776276,399.180756 311.000000,399.175629 
	C311.000000,409.283752 311.000000,419.391876 311.000000,430.000000 
z"/>
<path fill="#FFFFFF" opacity="1.000000" stroke="none" 
	d="
M191.000000,37.000000 
	C191.000000,58.601913 191.000000,79.703827 191.000000,100.805740 
	C190.777100,100.805962 190.554214,100.806183 190.331314,100.806412 
	C190.331314,70.936905 190.331314,41.067394 190.331314,11.197888 
	C190.554214,11.191732 190.777100,11.185576 191.000000,11.179420 
	C191.000000,19.619614 191.000000,28.059807 191.000000,37.000000 
z"/>
<path fill="#FFFFFF" opacity="1.000000" stroke="none" 
	d="
M195.000000,453.000000 
	C195.000000,464.282837 195.000000,475.065674 195.000000,485.848511 
	C194.772308,485.847900 194.544601,485.847260 194.316910,485.846649 
	C194.316910,457.283508 194.316910,428.720367 194.316910,400.157196 
	C194.544601,400.154266 194.772308,400.151337 195.000000,400.148407 
	C195.000000,417.598938 195.000000,435.049469 195.000000,453.000000 
z"/>
<path fill="#FF3E7F" opacity="1.000000" stroke="none" 
	d="
M236.001083,217.000519 
	C252.918701,217.000519 269.336578,217.000519 285.754425,217.000519 
	C285.753601,217.232758 285.752777,217.464996 285.751953,217.697235 
	C263.225281,217.697235 240.698578,217.697235 218.171890,217.697235 
	C218.169540,217.464996 218.167175,217.232758 218.164810,217.000519 
	C223.943665,217.000519 229.722504,217.000519 236.001083,217.000519 
z"/>
<path fill="#FF5555" opacity="1.000000" stroke="none" 
	d="
M289.000000,250.000000 
	C289.000000,263.292603 289.000000,276.085205 289.000000,288.877808 
	C288.750061,288.875671 288.500122,288.873535 288.250183,288.871399 
	C288.250183,266.290466 288.250183,243.709549 288.250183,221.128616 
	C288.500122,221.125763 288.750061,221.122910 289.000000,221.120056 
	C289.000000,230.580032 289.000000,240.040024 289.000000,250.000000 
z"/>
<path fill="#FF3E7F" opacity="1.000000" stroke="none" 
	d="
M256.000000,291.000488 
	C266.269714,291.000488 276.039459,291.000488 285.809174,291.000488 
	C285.808044,291.238495 285.806915,291.476471 285.805786,291.714478 
	C263.351105,291.714478 240.896423,291.714478 218.441757,291.714478 
	C218.436981,291.476471 218.432220,291.238464 218.427460,291.000458 
	C230.784973,291.000458 243.142487,291.000458 256.000000,291.000488 
z"/>
<path fill="#FF007F" opacity="1.000000" stroke="none" 
	d="
M215.000000,255.000000 
	C215.000000,265.943634 215.000000,276.387268 215.000000,286.830902 
	C214.761597,286.829803 214.523193,286.828674 214.284790,286.827576 
	C214.284790,265.679596 214.284790,244.531616 214.284790,223.383636 
	C214.523193,223.377945 214.761597,223.372269 215.000000,223.366592 
	C215.000000,233.744400 215.000000,244.122192 215.000000,255.000000 
z"/>
</svg>